<svg xmlns="http://www.w3.org/2000/svg" id="Camada_1" data-name="Camada 1" width="600" height="600" viewBox="0 0 600 600"><g><path d="M384.89,64.06H65.04v299.73l.05,22.57,149.24,149.25,320.99-.31.1-320.74-150.54-150.52ZM524.64,524.4l-305.73.28-142.82-142.83-.36-39.08-.22-171.04-.03-96.69h304.85s144.43,144.37,144.43,144.37l-.12,304.99Z" style="fill: #fdfdfd;"></path><path d="M384.89,64.06l-319.85.05h-.55c-.44,8.73-.18,16.5.18,25.24l.13,167.25.24,107.2.05,22.57,149.24,149.25,320.99-.31.1-320.74-150.54-150.52ZM524.64,524.4l-305.73.28-142.82-142.83-.36-39.08-.22-171.04-.03-96.69h304.85s144.43,144.37,144.43,144.37l-.12,304.99Z" style="fill: #fe9e0d;"></path><polygon points="524.76 219.41 524.64 524.4 218.91 524.68 76.09 381.85 75.73 342.77 75.51 171.72 75.49 75.04 380.33 75.02 524.76 219.41" style="fill: #fdfdfd;"></polygon></g><g id="Layer_1"><g id="amazon-web-services-2.svg"><path d="M180.79,160.67c0,2.04.22,3.69.6,4.9.44,1.21.99,2.53,1.76,3.96.27.44.39.88.39,1.27,0,.55-.33,1.1-1.05,1.65l-3.47,2.31c-.5.33-.99.5-1.43.5-.55,0-1.1-.27-1.65-.77-.77-.83-1.43-1.71-1.98-2.59-.55-.94-1.1-1.98-1.71-3.25-4.29,5.06-9.68,7.59-16.18,7.59-4.62,0-8.31-1.32-11-3.96-2.7-2.64-4.07-6.16-4.07-10.56,0-4.68,1.65-8.47,5.01-11.33s7.81-4.29,13.48-4.29c1.87,0,3.8.16,5.83.44,2.04.27,4.13.72,6.33,1.21v-4.02c0-4.18-.88-7.1-2.59-8.8-1.76-1.71-4.73-2.53-8.97-2.53-1.93,0-3.91.22-5.94.72s-4.02,1.1-5.94,1.87c-.88.39-1.54.6-1.93.72s-.66.16-.88.16c-.77,0-1.16-.55-1.16-1.71v-2.7c0-.88.11-1.54.39-1.93s.77-.77,1.54-1.16c1.93-.99,4.24-1.82,6.93-2.48,2.7-.72,5.56-1.05,8.58-1.05,6.55,0,11.33,1.49,14.42,4.46,3.03,2.97,4.57,7.48,4.57,13.54v17.83h.11,0ZM158.45,169.04c1.82,0,3.69-.33,5.67-.99s3.74-1.87,5.23-3.52c.88-1.05,1.54-2.2,1.87-3.52.33-1.32.55-2.92.55-4.79v-2.31c-1.6-.39-3.3-.72-5.06-.94-1.76-.22-3.47-.33-5.17-.33-3.69,0-6.38.72-8.2,2.2-1.82,1.49-2.7,3.58-2.7,6.33,0,2.59.66,4.51,2.04,5.83,1.32,1.38,3.25,2.04,5.78,2.04h0ZM202.63,174.98c-.99,0-1.65-.16-2.09-.55-.44-.33-.83-1.1-1.16-2.15l-12.93-42.53c-.33-1.1-.5-1.82-.5-2.2,0-.88.44-1.38,1.32-1.38h5.39c1.05,0,1.76.17,2.15.55.44.33.77,1.1,1.1,2.15l9.24,36.42,8.58-36.42c.27-1.1.6-1.82,1.05-2.15s1.21-.55,2.2-.55h4.4c1.05,0,1.76.17,2.2.55.44.33.83,1.1,1.05,2.15l8.69,36.86,9.52-36.86c.33-1.1.72-1.82,1.1-2.15.44-.33,1.16-.55,2.15-.55h5.12c.88,0,1.38.44,1.38,1.38,0,.27-.06.55-.11.88s-.17.77-.39,1.38l-13.26,42.53c-.33,1.1-.72,1.82-1.16,2.15-.44.33-1.16.55-2.09.55h-4.73c-1.05,0-1.76-.17-2.2-.55s-.83-1.1-1.05-2.2l-8.53-35.49-8.47,35.43c-.27,1.1-.61,1.82-1.05,2.2s-1.21.55-2.2.55h-4.73ZM273.33,176.47c-2.86,0-5.72-.33-8.47-.99s-4.9-1.38-6.33-2.2c-.88-.5-1.49-1.05-1.71-1.54-.22-.5-.33-1.05-.33-1.54v-2.81c0-1.16.44-1.71,1.27-1.71.33,0,.66.06.99.17s.83.33,1.38.55c1.87.83,3.91,1.49,6.05,1.93,2.2.44,4.35.66,6.55.66,3.47,0,6.16-.61,8.03-1.82s2.86-2.97,2.86-5.23c0-1.54-.5-2.81-1.49-3.85-.99-1.05-2.86-1.98-5.56-2.86l-7.98-2.48c-4.02-1.27-6.99-3.14-8.8-5.61-1.82-2.42-2.75-5.12-2.75-7.98,0-2.31.5-4.35,1.49-6.11.99-1.76,2.31-3.3,3.96-4.51,1.65-1.27,3.52-2.2,5.72-2.86s4.51-.94,6.93-.94c1.21,0,2.48.06,3.69.22,1.27.17,2.42.39,3.58.6,1.1.27,2.15.55,3.14.88s1.76.66,2.31.99c.77.44,1.32.88,1.65,1.38.33.44.5,1.05.5,1.82v2.59c0,1.16-.44,1.76-1.27,1.76-.44,0-1.16-.22-2.09-.66-3.14-1.43-6.66-2.15-10.56-2.15-3.14,0-5.61.5-7.32,1.54s-2.59,2.64-2.59,4.9c0,1.54.55,2.86,1.65,3.91s3.14,2.09,6.05,3.03l7.81,2.48c3.96,1.27,6.82,3.03,8.53,5.28s2.53,4.84,2.53,7.7c0,2.37-.5,4.51-1.43,6.38-.99,1.87-2.31,3.52-4.02,4.84-1.71,1.38-3.74,2.37-6.11,3.08-2.48.77-5.06,1.16-7.87,1.16h0Z" style="fill: #ffffff; fill-rule: evenodd;"></path><path d="M283.73,203.21c-18.1,13.37-44.4,20.47-67.02,20.47-31.69,0-60.25-11.72-81.82-31.2-1.71-1.54-.16-3.63,1.87-2.42,23.33,13.54,52.11,21.73,81.87,21.73,20.08,0,42.15-4.18,62.45-12.77,3.03-1.38,5.61,1.98,2.64,4.18Z" style="fill: #f90; fill-rule: evenodd;"></path><path d="M291.27,194.62c-2.31-2.97-15.3-1.43-21.18-.72-1.76.22-2.04-1.32-.44-2.48,10.34-7.26,27.35-5.17,29.33-2.75,1.98,2.48-.55,19.48-10.23,27.62-1.49,1.27-2.92.61-2.26-1.05,2.2-5.45,7.1-17.72,4.79-20.63h0Z" style="fill: #f90; fill-rule: evenodd;"></path></g></g><g><path d="M215.07,337.29c0,10.58-4.31,16.16-11.91,16.16-5.06,0-7.94-2.13-9.43-4.72l-.17.06c.11,1.32.29,4.14.29,6.04v11.04h-3.22v-43.26h2.36l.86,4.49h.12c1.9-2.88,4.89-4.95,9.61-4.95,6.33,0,11.5,4.14,11.5,15.13ZM211.85,338.33v-2.13c0-8.11-2.82-10.99-9.03-10.99-3.22,0-6.85,1.27-8.97,3.62v17.77c1.67,2.24,4.6,3.8,8.8,3.8,6.56,0,9.2-4.08,9.2-12.08Z" style="fill: #ffffff;"></path><path d="M237.67,322.57v2.82l-.17.23c-.69-.11-1.38-.17-2.18-.17-4.37,0-7.08,1.32-9.15,3.8v23.76h-3.22v-30.37h2.13l1.09,4.37h.17c1.67-2.99,4.83-4.77,8.74-4.77,1.21,0,2.24.23,2.59.35Z" style="fill: #ffffff;"></path><path d="M253.61,322.16c7.31,0,12.71,4.89,12.71,15.82,0,9.72-4.77,15.47-12.71,15.47s-12.71-5.75-12.71-15.47c0-10.93,5.47-15.82,12.71-15.82ZM253.61,350.41c6.5,0,9.49-3.97,9.49-11.27v-2.42c0-7.71-3.11-11.5-9.49-11.5s-9.49,3.8-9.49,11.5v2.42c0,7.36,3.05,11.27,9.49,11.27Z" style="fill: #ffffff;"></path><path d="M290.26,310.08v2.76l-.17.17c-1.04-.23-2.47-.35-3.62-.35-4.77,0-6.5,1.73-6.5,6.21v3.74h9.09v2.82h-9.09v27.55h-3.22v-27.55h-6.1v-2.82h6.1v-2.76c0-6.33,2.59-10.24,9.61-10.24,1.67,0,3.11.23,3.91.46Z" style="fill: #ffffff;"></path><path d="M295.26,337.52v2.53c0,6.39,1.96,10.35,10.47,10.35,3.51,0,6.39-.69,8.28-1.44l.17.17v2.76c-1.5.75-4.43,1.55-8.51,1.55-11.1,0-13.63-6.44-13.63-15.47,0-10.81,4.66-15.82,12.48-15.82,6.79,0,10.7,3.85,10.7,10.41v4.95h-19.96ZM295.32,334.93h16.74v-2.99c0-4.6-2.07-6.73-7.48-6.73h-.52c-5.23,0-8.4,2.59-8.74,9.72Z" style="fill: #ffffff;"></path><path d="M333.98,322.16c3.05,0,5.69.35,7.19.69v2.82l-.23.17c-1.73-.29-4.31-.63-7.02-.63-6.44,0-8.8,1.78-8.8,5.06v.46c0,2.65,1.04,3.85,5.35,4.66l4.89.92c5.69,1.04,7.53,3.91,7.53,7.82,0,5.58-3.57,9.32-11.68,9.32-4.14,0-6.79-.4-8.4-.69v-2.93l.17-.17c2.19.4,5.18.75,8.17.75,6.38,0,8.57-2.07,8.57-6.04v-.35c0-2.65-1.21-4.26-5.81-5.12l-4.95-.92c-5.41-.98-7.02-3.62-7.02-7.42,0-4.49,2.99-8.4,12.02-8.4Z" style="fill: #ffffff;"></path><path d="M361.59,322.16c3.05,0,5.69.35,7.19.69v2.82l-.23.17c-1.73-.29-4.31-.63-7.02-.63-6.44,0-8.8,1.78-8.8,5.06v.46c0,2.65,1.04,3.85,5.35,4.66l4.89.92c5.69,1.04,7.53,3.91,7.53,7.82,0,5.58-3.57,9.32-11.68,9.32-4.14,0-6.79-.4-8.4-.69v-2.93l.17-.17c2.19.4,5.18.75,8.17.75,6.38,0,8.57-2.07,8.57-6.04v-.35c0-2.65-1.21-4.26-5.81-5.12l-4.95-.92c-5.41-.98-7.02-3.62-7.02-7.42,0-4.49,2.99-8.4,12.02-8.4Z" style="fill: #ffffff;"></path><path d="M379.94,310.83c1.61,0,1.84.46,1.84,2.99s-.23,2.93-1.84,2.93-1.84-.52-1.84-2.93.23-2.99,1.84-2.99ZM381.55,322.62v30.37h-3.22v-30.37h3.22Z" style="fill: #ffffff;"></path><path d="M402.09,322.16c7.31,0,12.71,4.89,12.71,15.82,0,9.72-4.77,15.47-12.71,15.47s-12.71-5.75-12.71-15.47c0-10.93,5.47-15.82,12.71-15.82ZM402.09,350.41c6.5,0,9.49-3.97,9.49-11.27v-2.42c0-7.71-3.11-11.5-9.49-11.5s-9.49,3.8-9.49,11.5v2.42c0,7.36,3.05,11.27,9.49,11.27Z" style="fill: #ffffff;"></path><path d="M445,331.31v21.69h-3.22v-22.43c0-3.62-1.84-5.35-6.79-5.35-3.22,0-6.85,1.15-9.15,3.45v24.33h-3.22v-30.37h2.36l.86,4.37h.17c1.96-2.93,5.35-4.83,9.84-4.83,5.23,0,9.15,2.42,9.15,9.15Z" style="fill: #ffffff;"></path><path d="M476.13,334.19v18.81h-2.3l-.86-4.54h-.12c-1.55,2.88-4.72,5-10.47,5-6.04,0-9.61-3.28-9.61-9.09,0-4.83,2.59-8.69,10.58-8.69,4.31,0,7.77.58,9.43.86h.17v-3.45c0-5.75-3.28-7.88-10.24-7.88-3.34,0-6.61.57-8.28.98l-.17-.17v-2.88c2.01-.52,4.95-.98,8.34-.98,9.9,0,13.52,4.14,13.52,12.02ZM472.96,346.55v-7.77c-2.93-.23-6.5-.52-10.24-.52-5.46,0-6.73,2.47-6.73,5.29v1.09c0,4.03,2.24,5.75,6.56,5.75h.69c4.31,0,7.48-1.44,9.72-3.85Z" style="fill: #ffffff;"></path><path d="M488.21,310.08v42.91h-3.22v-42.91h3.22Z" style="fill: #ffffff;"></path><path d="M305.96,380.24c3.05,0,5.69.35,7.19.69v2.82l-.23.17c-1.73-.29-4.31-.63-7.02-.63-6.44,0-8.8,1.78-8.8,5.06v.46c0,2.65,1.04,3.85,5.35,4.66l4.89.92c5.69,1.04,7.53,3.91,7.53,7.82,0,5.58-3.57,9.32-11.68,9.32-4.14,0-6.79-.4-8.4-.69v-2.93l.17-.17c2.19.4,5.18.75,8.17.75,6.38,0,8.57-2.07,8.57-6.04v-.35c0-2.65-1.21-4.26-5.81-5.12l-4.95-.92c-5.41-.98-7.02-3.62-7.02-7.42,0-4.49,2.99-8.4,12.02-8.4Z" style="fill: #ffffff;"></path><path d="M324.43,395.6v2.53c0,6.39,1.96,10.35,10.47,10.35,3.51,0,6.39-.69,8.28-1.44l.17.17v2.76c-1.5.75-4.43,1.55-8.51,1.55-11.1,0-13.63-6.44-13.63-15.47,0-10.81,4.66-15.82,12.48-15.82,6.79,0,10.7,3.85,10.7,10.41v4.95h-19.96ZM324.48,393.01h16.74v-2.99c0-4.6-2.07-6.73-7.48-6.73h-.52c-5.23,0-8.4,2.59-8.74,9.72Z" style="fill: #ffffff;"></path><path d="M366.88,380.64v2.82l-.17.23c-.69-.11-1.38-.17-2.18-.17-4.37,0-7.08,1.32-9.15,3.8v23.76h-3.22v-30.37h2.13l1.09,4.37h.17c1.67-2.99,4.83-4.77,8.74-4.77,1.21,0,2.24.23,2.59.35Z" style="fill: #ffffff;"></path><path d="M373.15,380.7l6.44,18.24c.8,2.3,2.42,7.54,3.05,9.78h.23c.63-2.24,2.24-7.48,3.11-9.78l6.44-18.24h3.11l.23.23-10.76,30.14h-4.43l-10.76-30.14.17-.23h3.16Z" style="fill: #ffffff;"></path><path d="M403.41,368.91c1.61,0,1.84.46,1.84,2.99s-.23,2.93-1.84,2.93-1.84-.52-1.84-2.93.23-2.99,1.84-2.99ZM405.02,380.7v30.37h-3.22v-30.37h3.22Z" style="fill: #ffffff;"></path><path d="M426.88,380.24c3.05,0,5.41.58,6.56.98v2.82l-.17.17c-1.73-.46-3.97-.92-6.73-.92-6.85,0-10.47,2.99-10.47,11.73v1.73c0,8.4,2.82,11.74,10.12,11.74,3.05,0,6.15-.81,7.88-1.38l.23.17v2.88c-1.61.63-4.31,1.38-8.17,1.38-9.49,0-13.29-5.69-13.29-15.65,0-10.76,5-15.65,14.04-15.65Z" style="fill: #ffffff;"></path><path d="M442.07,395.6v2.53c0,6.39,1.96,10.35,10.47,10.35,3.51,0,6.39-.69,8.28-1.44l.17.17v2.76c-1.5.75-4.43,1.55-8.51,1.55-11.1,0-13.63-6.44-13.63-15.47,0-10.81,4.66-15.82,12.48-15.82,6.79,0,10.7,3.85,10.7,10.41v4.95h-19.96ZM442.13,393.01h16.74v-2.99c0-4.6-2.07-6.73-7.48-6.73h-.52c-5.23,0-8.4,2.59-8.74,9.72Z" style="fill: #ffffff;"></path><path d="M480.78,380.24c3.05,0,5.69.35,7.19.69v2.82l-.23.17c-1.73-.29-4.31-.63-7.02-.63-6.44,0-8.8,1.78-8.8,5.06v.46c0,2.65,1.04,3.85,5.35,4.66l4.89.92c5.69,1.04,7.53,3.91,7.53,7.82,0,5.58-3.57,9.32-11.68,9.32-4.14,0-6.79-.4-8.4-.69v-2.93l.17-.17c2.19.4,5.18.75,8.17.75,6.38,0,8.57-2.07,8.57-6.04v-.35c0-2.65-1.21-4.26-5.81-5.12l-4.95-.92c-5.41-.98-7.02-3.62-7.02-7.42,0-4.49,2.99-8.4,12.02-8.4Z" style="fill: #ffffff;"></path></g></svg>